# xmcd
#
# Track frame offsets:
#	150
#	18096
#	36106
#	52016
#	63255
#	88559
#	104424
#	120030
#	139312
#	159371
#	172634
#	182645
#	203655
#	215028
#	223799
#	244270
#	253031
#	264831
#	271801
#	287681
#	293391
#
# Disc length: 4166 seconds
#
# Revision: 1
# Processed by: cddbd v1.5.2PL0 Copyright (c) Steve Scherf et al.
# Submitted via: audiograbber 1.83.01
#
DISCID=22104415
DTITLE=Children Of The Corn - The Havoc
DYEAR=1997
DGENRE=Rap
TTITLE0=Children Of The Corn
TTITLE1=Grab My Mask
TTITLE2=Make Em Fall
TTITLE3=Lay It Down
TTITLE4=Black Magic
TTITLE5=Lookin For A Murderer
TTITLE6=No One Can Save You
TTITLE7=Devil Shit
TTITLE8=No Matter Whatever
TTITLE9=Dig Them Graves
TTITLE10=The Dark Side
TTITLE11=Whitehaven Hoes
TTITLE12=Return Of The 666
TTITLE13=Shout Outs
TTITLE14=Reality
TTITLE15=I Cant Be Killed
TTITLE16=Twilight Zone
TTITLE17=Horror Stang
TTITLE18=Wicked Ways
TTITLE19=Outro
TTITLE20=1 In The Chamber
EXTD=
EXTT0=
EXTT1=
EXTT2=
EXTT3=
EXTT4=
EXTT5=
EXTT6=
EXTT7=
EXTT8=
EXTT9=
EXTT10=
EXTT11=
EXTT12=
EXTT13=
EXTT14=
EXTT15=
EXTT16=
EXTT17=
EXTT18=
EXTT19=
EXTT20=
PLAYORDER=
